<svg version="1.1" id="Layer_1" xmlns="http://www.w3.org/2000/svg" xmlns:xlink="http://www.w3.org/1999/xlink" x="0px" y="0px"
	 width="100%" viewBox="0 0 1024 1024" enable-background="new 0 0 1024 1024" xml:space="preserve">
<path fill="#000000" opacity="1.000000" stroke="none" 
	d="
M612.224182,573.342529 
	C617.102539,573.517822 620.512756,570.599060 624.015381,568.235779 
	C638.395447,558.533264 651.436584,547.325073 663.269104,534.535400 
	C680.250916,516.179993 693.866028,495.690674 703.571045,472.769226 
	C713.315308,449.755249 714.932373,425.668884 712.654114,400.809113 
	C710.540588,377.747406 704.274597,355.292358 703.419678,332.147339 
	C702.693176,312.479248 707.040588,294.361542 722.625671,280.681091 
	C728.920837,275.155212 736.131470,270.996460 743.885620,267.823364 
	C745.210205,267.281372 746.602783,266.478027 748.046875,267.262146 
	C748.998047,268.844971 748.068848,269.976501 747.420349,271.070435 
	C736.607422,289.308228 735.606995,309.083588 737.744568,329.529816 
	C740.391541,354.849396 743.682434,380.163605 742.867981,405.699280 
	C742.101318,429.732544 736.623291,452.684235 726.918640,474.791931 
	C717.763123,495.648438 705.359436,514.269409 689.785339,530.626892 
	C670.968018,550.390808 649.091248,565.802612 622.424622,573.452454 
	C620.669861,573.955872 618.954956,574.607910 617.247131,575.257996 
	C616.832520,575.415894 616.519409,575.840454 615.792603,576.450378 
	C620.545898,581.237488 626.371948,584.116760 631.950256,587.262207 
	C646.951721,595.720947 662.885376,601.025879 680.327454,601.115112 
	C684.500793,601.136414 688.211670,600.131714 691.592346,597.751648 
	C695.320007,595.127258 696.952515,591.473328 695.044617,587.340698 
	C693.224548,583.398376 689.633423,581.550598 685.101685,582.465820 
	C683.351074,582.819275 681.643738,583.387329 679.821655,583.883545 
	C680.040833,578.899536 683.997620,575.160034 689.102112,574.765442 
	C699.951904,573.926697 708.286438,582.740479 706.779236,593.746826 
	C706.398499,596.526733 706.581726,598.100037 709.794067,597.637207 
	C728.190308,594.986572 743.867126,587.759949 753.892273,571.175842 
	C759.092285,562.573914 757.220520,554.400146 749.069885,550.394226 
	C745.395996,548.588562 741.792847,548.708496 738.815063,551.576172 
	C738.746948,553.025452 739.461060,553.458252 740.274048,553.717590 
	C744.669678,555.119385 746.281982,558.454712 745.793274,562.638428 
	C745.329712,566.606934 742.452637,568.911865 738.627502,569.143616 
	C734.296021,569.405945 730.733643,567.335999 729.068848,563.242676 
	C726.734497,557.503052 726.609253,551.509766 731.041321,546.798523 
	C735.879395,541.655762 742.481689,540.676819 749.117004,542.222534 
	C764.878418,545.894165 771.140198,562.307434 762.565063,576.886353 
	C761.649109,578.443604 760.335022,579.807251 760.124268,582.530884 
	C765.533569,582.156128 770.837585,581.876770 776.124329,581.404602 
	C788.680298,580.283325 801.356079,588.516846 805.225281,600.403320 
	C807.478088,607.324097 803.592712,617.874634 797.073853,622.538208 
	C789.800537,627.741516 779.900024,628.027588 773.770081,623.211670 
	C770.860962,620.926147 770.481689,620.170166 770.235535,616.101685 
	C772.502075,614.995789 774.392517,616.645813 776.414856,617.067322 
	C783.676392,618.580750 790.312866,615.416931 791.791321,609.561584 
	C793.760559,601.763062 790.628418,596.419495 782.665833,593.983704 
	C777.751160,592.480347 772.728455,593.087219 767.770813,593.431030 
	C754.199280,594.372314 741.753967,599.629944 728.337524,603.326843 
	C730.383118,606.684875 732.245605,609.221985 733.564880,612.015625 
	C736.384766,617.986755 736.814453,624.002625 732.023682,629.251526 
	C727.097290,634.648865 721.176880,637.446960 713.664856,635.103577 
	C708.949402,633.632446 707.318542,630.353577 707.529968,625.746277 
	C709.854980,624.932007 711.247131,626.592102 712.948303,627.034302 
	C717.214539,628.143311 722.434692,626.088562 724.075073,622.475098 
	C725.502747,619.330200 723.746277,614.460022 720.247131,612.078918 
	C714.188904,607.956299 707.621765,606.551636 700.305298,607.783997 
	C695.086670,608.662903 689.749207,608.841858 684.462891,609.311462 
	C681.530823,609.572021 678.481506,609.183838 675.925171,610.725891 
	C675.368225,611.888550 675.908630,612.581116 676.553162,613.092102 
	C689.613586,623.446167 700.540161,636.234009 714.042358,646.068176 
	C721.636780,651.599548 729.477051,656.461121 739.629211,655.441772 
	C744.399902,654.962769 747.315674,652.424438 749.185120,648.556946 
	C751.413940,643.945984 750.587036,639.913940 747.393738,636.872986 
	C745.611877,637.280640 745.850891,638.918823 745.671387,640.091797 
	C745.131470,643.619568 743.423279,646.009033 739.792847,646.595581 
	C736.420715,647.140381 733.317139,646.303406 731.504761,643.290649 
	C729.620667,640.158752 729.159607,636.752625 731.351807,633.387756 
	C734.576782,628.437744 744.465393,625.195068 750.198303,627.273132 
	C754.891541,628.974304 759.174072,637.212280 758.735718,643.695984 
	C757.634827,659.980469 742.428650,669.258850 726.861755,663.104736 
	C716.185547,658.884033 707.173828,652.115662 698.868103,644.369202 
	C693.631531,639.485229 688.638794,634.340454 683.510498,629.339417 
	C682.219299,628.080322 681.011230,626.653748 679.171997,626.289612 
	C678.243774,626.548767 678.169983,627.282654 678.196228,627.914673 
	C678.727478,640.689331 670.615601,646.759644 660.624817,649.562500 
	C649.274475,652.746826 640.080505,644.386902 641.825745,632.746765 
	C642.585205,627.680969 645.269653,624.945923 649.805420,624.634399 
	C653.924988,624.351440 657.152893,625.772522 658.311279,629.953003 
	C659.623352,634.688721 657.620667,638.002869 652.714600,639.964966 
	C654.323547,642.340088 656.161682,642.849182 658.727295,642.259277 
	C668.480591,640.016357 672.170044,629.445740 666.099487,620.989075 
	C663.418823,617.254883 659.726685,614.633728 656.058167,612.068909 
	C650.500793,608.183533 644.514893,605.032410 638.267639,602.535095 
	C635.588196,605.173584 636.516174,608.167175 636.353943,610.872131 
	C635.563049,624.061584 630.393005,634.636353 618.435425,641.180176 
	C608.172241,646.796753 589.222168,645.263733 582.532593,630.974976 
	C579.120850,623.687561 579.954956,613.523254 584.970459,609.027039 
	C591.819458,602.887207 603.741943,601.544556 610.548035,606.146667 
	C614.737305,608.979370 616.965210,616.317993 614.860291,620.351135 
	C612.181763,625.483337 606.279663,627.759705 600.784546,625.881470 
	C597.061462,624.608948 596.298462,621.256287 595.103638,618.172668 
	C594.538574,616.714355 594.734558,614.395752 592.427429,614.598267 
	C590.373230,614.778687 589.455505,616.713318 589.046509,618.514587 
	C587.939758,623.389099 589.671753,627.376038 593.471008,630.419250 
	C603.821594,638.710083 619.997314,632.663879 624.628357,618.825439 
	C628.719543,606.600098 622.060547,592.630615 609.297913,585.955627 
	C604.712402,583.557373 601.983826,583.591125 598.258728,588.212158 
	C589.258240,599.377258 578.258484,608.679016 566.900085,617.418518 
	C563.579407,619.973511 563.208618,622.358948 564.554626,625.931091 
	C570.173462,640.843140 587.170410,655.973938 605.060425,655.002319 
	C606.469604,654.925842 608.045166,654.591248 609.282104,655.690552 
	C607.269043,662.312012 597.004944,667.718567 587.874512,667.001892 
	C579.139404,666.316284 571.934326,661.845398 564.925964,656.855957 
	C563.318970,659.934814 566.041016,662.599365 564.176758,665.606079 
	C559.202087,663.660522 556.601990,659.323242 554.150452,655.224426 
	C551.081299,650.092896 549.015564,644.430298 547.786682,638.516602 
	C547.429810,636.799011 547.485901,634.326782 544.931335,634.671143 
	C542.686890,634.973694 541.041870,636.585815 541.153137,639.214233 
	C541.343689,643.716736 541.802551,648.236816 543.361572,652.450928 
	C545.903198,659.321106 549.032288,665.949951 553.189880,672.031311 
	C555.665771,675.652893 557.868225,679.338867 557.237976,684.015991 
	C556.726624,687.810852 554.740295,690.071716 550.824463,690.448730 
	C542.711304,691.229858 538.363770,685.937439 534.538696,680.099731 
	C531.752563,675.847656 529.503723,671.266479 528.470520,665.030029 
	C525.381714,668.769165 526.558838,671.274658 527.492065,673.860779 
	C532.887085,688.810791 529.364990,702.269897 517.622314,712.824951 
	C514.472168,715.656494 512.071411,716.018860 508.663574,713.014465 
	C497.325134,703.018616 493.618225,689.640076 498.439178,674.488770 
	C499.798126,670.217834 499.798126,670.217834 498.564911,667.023315 
	C496.157471,668.307190 496.220306,670.905945 495.408173,672.957947 
	C492.823334,679.488892 488.889130,684.954590 482.967224,688.791687 
	C478.267609,691.836975 474.104645,691.787964 471.155975,688.450012 
	C467.933350,684.802002 467.876068,680.466309 470.210663,676.365723 
	C473.664246,670.299744 477.836121,664.663269 480.482574,658.113953 
	C482.876221,652.190369 484.684570,646.178772 484.868988,639.760254 
	C484.934235,637.489502 484.602997,635.082275 481.946533,634.645447 
	C478.879974,634.141296 478.743011,636.881714 478.237671,638.920410 
	C475.958984,648.113525 471.981812,656.411499 465.422852,663.347717 
	C464.542358,664.278809 463.753021,665.495911 461.870178,665.259583 
	C459.754578,663.152893 462.349182,660.249146 460.882172,657.329102 
	C449.905426,664.921814 438.536133,670.654907 425.190948,663.910645 
	C421.592834,662.092224 417.786469,660.260132 416.144043,655.678284 
	C418.771271,654.395020 421.281464,654.910339 423.690674,654.859070 
	C438.905090,654.534912 457.345032,640.241699 461.374756,625.636047 
	C462.255615,622.443298 461.739990,619.738953 459.067535,617.563538 
	C447.044006,607.776184 435.484467,597.493042 425.216339,585.829712 
	C423.198242,583.537476 420.741882,583.840637 418.374420,585.100525 
	C404.037659,592.729858 399.836670,601.253662 401.407593,616.349792 
	C402.770325,629.445435 421.348022,639.486084 431.343475,631.787903 
	C434.847260,629.089417 437.347504,626.023804 437.503693,621.497070 
	C437.604401,618.578369 437.034760,615.895935 433.772339,614.511108 
	C431.239532,616.644714 431.055847,619.909973 429.365997,622.319946 
	C426.052368,627.045776 421.018982,628.159180 415.370911,625.210876 
	C411.410675,623.143738 409.057739,617.013672 410.575226,612.690979 
	C411.735718,609.385132 413.904724,606.953247 417.048584,605.429199 
	C426.467316,600.863342 438.560059,603.971680 443.703522,612.257263 
	C448.634857,620.201111 445.765472,632.207214 437.431091,638.502136 
	C421.280182,650.700867 398.316742,642.918091 391.774628,623.082947 
	C390.353943,618.775513 389.415894,614.458069 389.608856,609.886414 
	C389.705078,607.607666 389.796112,605.217590 387.699066,602.564819 
	C376.657990,608.542175 364.040039,612.409851 358.149811,625.201355 
	C356.051727,629.757690 356.551483,634.411682 360.635834,637.970886 
	C363.931335,640.842712 367.484131,643.134888 371.999695,641.148376 
	C372.426361,639.165466 371.148956,638.687622 370.303986,637.990845 
	C367.066345,635.321228 367.296417,631.775085 368.189758,628.348511 
	C368.964935,625.375122 371.840668,624.347717 374.477417,624.210083 
	C378.105286,624.020691 381.338501,625.303406 383.204803,628.859619 
	C386.062286,634.304382 385.211304,641.116333 381.047577,645.616821 
	C376.633942,650.387390 369.476776,651.745850 363.110321,649.173218 
	C353.450958,645.269958 347.539429,638.588989 347.631622,627.233032 
	C343.745331,628.041138 341.675903,630.209045 339.652435,632.269348 
	C330.772430,641.310730 321.588013,650.007568 311.037598,657.097900 
	C301.953888,663.202576 292.543121,667.617737 281.098297,663.443726 
	C268.080292,658.696045 263.017273,639.673889 272.347839,629.888733 
	C276.837769,625.180054 282.172485,626.410095 287.273010,627.863037 
	C292.056885,629.225769 295.261444,632.675354 296.056000,637.783325 
	C296.813660,642.654114 293.258942,646.649841 288.301117,646.785461 
	C283.411926,646.919250 280.254211,643.779541 280.449005,638.936890 
	C280.483154,638.087891 280.542969,637.280518 279.533905,636.435120 
	C276.747253,636.844116 276.248474,639.216675 276.110382,641.462769 
	C275.409790,652.859436 282.183533,656.916809 294.327362,655.151611 
	C300.816467,654.208313 306.270264,650.171387 311.584961,646.436279 
	C322.258026,638.935364 331.121094,629.345154 340.708801,620.603455 
	C344.093353,617.517517 348.330750,615.241943 351.170319,610.667847 
	C342.901947,609.802002 334.996216,609.358032 327.236359,608.049255 
	C320.017853,606.831848 313.368256,607.222229 307.101837,611.259644 
	C302.647705,614.129456 300.669037,618.165283 302.078674,621.914001 
	C303.572021,625.885437 308.100403,627.818970 313.415558,626.855652 
	C314.992554,626.569885 316.348297,625.064392 318.140198,625.960083 
	C318.849152,630.999573 314.567047,635.887146 309.220123,635.798462 
	C301.958740,635.678101 295.570740,633.386658 292.356903,626.326965 
	C289.243469,619.487854 290.218231,613.007019 295.660675,607.464233 
	C296.570190,606.537964 297.290680,605.426025 298.334839,604.099670 
	C295.097839,601.728394 291.391235,601.304565 287.987000,600.280457 
	C275.566956,596.543884 263.262360,592.225891 249.947357,592.896423 
	C245.849503,593.102783 241.934921,593.655640 238.544312,595.972900 
	C233.581268,599.364807 232.120300,604.640015 234.361542,610.048401 
	C236.397522,614.961487 242.491104,618.330505 247.821182,617.321350 
	C250.557602,616.803223 253.235519,615.976318 256.003235,615.272827 
	C256.314758,620.895325 251.288742,625.676880 244.847351,626.275146 
	C232.176285,627.451965 224.120438,621.712524 221.091324,609.349915 
	C218.650650,599.388794 225.142517,588.393494 235.956360,583.986572 
	C243.984955,580.714722 252.276093,581.328247 260.587860,582.115356 
	C262.359863,582.283081 264.102539,583.240417 266.178284,582.036865 
	C264.653625,577.883667 262.430695,574.015442 261.049591,569.771790 
	C258.283630,561.273193 259.781708,553.688538 266.075226,547.728638 
	C272.778137,541.381104 281.177185,540.084167 289.807526,543.348999 
	C298.142548,546.502197 301.202484,557.369873 296.211823,564.693054 
	C293.439667,568.760803 287.937134,570.183167 283.865631,567.884338 
	C280.276154,565.857666 279.295654,562.141602 281.004761,557.885010 
	C282.315521,554.620544 285.586761,554.404480 288.483246,553.073975 
	C287.130035,549.763489 284.414062,549.503967 281.845886,549.571594 
	C274.012817,549.777771 267.612976,556.870117 269.795593,564.812012 
	C272.298706,573.919983 277.970337,580.219482 285.202026,585.633545 
	C293.501587,591.847046 302.652527,595.891479 313.020966,596.959290 
	C315.575775,597.222351 317.806671,599.375427 320.640747,598.464661 
	C317.940033,585.943481 320.866974,578.755798 329.773773,575.675537 
	C337.802032,572.899231 343.439911,575.202087 346.941589,582.763733 
	C345.411591,584.399719 343.869415,582.969971 342.415741,582.664612 
	C336.491455,581.420105 332.713104,583.261353 330.823456,588.459290 
	C329.380066,592.429688 331.799316,596.867920 336.816833,599.000183 
	C345.964539,602.887390 355.285980,600.721680 364.276001,598.786194 
	C380.430420,595.308289 394.911499,587.757446 408.448242,578.386169 
	C409.092621,577.940125 409.557953,577.235474 410.553497,576.175659 
	C404.269806,573.830078 398.374481,571.780884 392.595734,569.443604 
	C376.267914,562.839478 361.478210,553.789795 348.290405,542.015991 
	C340.067688,534.674866 332.365631,526.928406 325.464569,518.329346 
	C313.599457,503.544891 304.520355,487.236115 297.040527,469.827759 
	C284.782532,441.298859 281.407379,411.419647 283.148102,380.901367 
	C284.254700,361.501465 287.066132,342.198883 289.109161,322.852264 
	C291.015656,304.798828 287.898529,287.731903 279.054077,271.796478 
	C278.258301,270.362701 277.114868,269.070038 277.375824,266.677917 
	C283.386261,267.146851 288.269897,270.510651 293.108429,273.208679 
	C317.789032,286.970795 326.960602,315.743958 319.836212,338.216003 
	C317.452911,345.733490 316.552277,353.407013 317.028687,361.368958 
	C317.838715,374.906372 315.035980,388.243622 313.532959,401.598816 
	C309.405029,438.277283 318.185791,471.438324 338.043823,502.208008 
	C349.538147,520.018311 362.803162,536.249329 378.501160,550.436096 
	C388.875305,559.811462 400.224884,567.892151 413.008911,574.195557 
	C414.561218,572.003418 413.453827,570.421082 412.270416,568.784729 
	C396.157196,546.503967 385.973297,521.559692 380.229309,494.869843 
	C373.802490,465.007233 372.034332,434.665741 372.685486,404.161285 
	C372.760834,400.630096 374.472198,399.021576 377.549988,397.536346 
	C394.759705,389.231293 407.922363,377.023376 412.707825,357.836212 
	C415.987122,344.688049 413.416565,332.058075 407.303680,320.093140 
	C406.699280,318.910065 406.024719,317.760559 405.472900,316.554230 
	C405.284241,316.141785 405.372070,315.602936 405.334686,315.135986 
	C406.879974,313.139984 409.036652,313.789124 410.930298,313.787720 
	C479.091156,313.736938 547.252075,313.723938 615.412964,313.711060 
	C621.288391,313.709930 621.652710,314.241028 619.302185,319.495239 
	C615.553162,327.875916 612.393127,336.286926 612.147156,345.751495 
	C611.681458,363.673889 620.143005,376.906403 633.088440,387.981567 
	C637.782654,391.997650 643.028015,395.268982 648.747253,397.684601 
	C651.625305,398.900208 653.198608,400.714722 653.280334,404.083344 
	C654.124207,438.867706 651.458313,473.264740 642.357300,506.990479 
	C636.321472,529.357788 626.766785,550.082336 613.586548,569.143799 
	C612.788635,570.297668 611.450684,571.381897 612.224182,573.342529 
M555.500122,328.249573 
	C514.850952,328.236267 474.201782,328.216705 433.552612,328.216339 
	C427.396057,328.216309 426.681763,329.064758 427.387848,335.258636 
	C427.500732,336.248993 427.783081,337.220245 427.891937,338.210815 
	C429.322937,351.231171 427.810303,363.784058 421.785980,375.578156 
	C415.161041,388.548065 405.228119,398.376923 392.764069,405.715027 
	C389.003113,407.929230 387.036652,410.706909 387.161072,415.376068 
	C387.369507,423.194672 387.827545,431.000610 388.052277,438.810455 
	C388.566681,456.688812 390.687042,474.436554 394.877197,491.701447 
	C399.052216,508.903625 404.343781,525.903137 413.074738,541.627502 
	C422.187683,558.039734 433.019745,573.082581 446.175140,586.444336 
	C456.703033,597.137390 468.295044,606.434021 480.762177,614.902893 
	C489.975555,621.161560 499.073303,627.556641 508.673706,633.217041 
	C511.446320,634.851746 514.111755,635.294312 517.110962,633.501038 
	C536.716370,621.778809 555.552856,609.004700 572.593201,593.704956 
	C602.387146,566.954285 621.192627,533.694763 630.590576,495.029816 
	C637.070190,468.371521 638.770264,441.147705 639.032654,413.801086 
	C639.067566,410.171509 637.486267,408.105682 634.446533,406.276917 
	C621.554565,398.520874 610.553345,388.854065 604.002197,374.888306 
	C598.018921,362.133209 596.298462,348.853821 598.649536,334.970642 
	C599.680054,328.884888 598.845093,328.103180 592.484009,328.125793 
	C580.489380,328.168396 568.494812,328.208466 555.500122,328.249573 
z"/>
<path fill="#000000" opacity="1.000000" stroke="none" 
	d="
M477.531891,202.770874 
	C478.451660,207.390472 477.489166,211.183640 474.325226,214.112640 
	C472.416138,215.879898 472.091217,217.623795 473.032379,219.888184 
	C475.781250,226.501785 478.642792,233.072922 482.511597,239.115372 
	C487.250519,246.516785 492.043091,246.269409 496.124786,238.598541 
	C501.449463,228.591690 502.407471,217.275909 505.712555,206.663788 
	C506.155914,205.240250 506.287354,203.722488 506.669220,202.276352 
	C508.012268,197.189651 509.349426,192.816986 504.146179,188.140793 
	C498.926880,183.450089 500.474548,175.190292 505.798706,170.981476 
	C510.724365,167.087677 518.109314,168.136902 522.286865,173.324005 
	C526.633667,178.721298 526.031921,185.610916 520.306580,190.109283 
	C517.772156,192.100555 517.240112,193.809937 518.041809,196.839951 
	C520.976440,207.930618 523.546265,219.117325 526.402527,230.229538 
	C527.440796,234.268890 529.049927,238.125900 531.701050,241.449799 
	C534.924133,245.490646 537.551208,245.685730 541.121338,242.005020 
	C547.595581,235.330215 550.366150,226.748428 553.242737,218.227692 
	C553.965454,216.086838 552.532959,214.816223 551.386780,213.396347 
	C546.887756,207.822891 547.415588,201.097076 552.682251,196.617950 
	C556.383484,193.470139 563.728455,194.168930 567.258606,198.004715 
	C571.587280,202.708130 571.326233,210.047943 566.155945,214.536957 
	C563.408813,216.922043 561.537109,219.208603 562.273254,222.967102 
	C563.610657,229.795120 563.864319,236.846313 566.250793,243.454391 
	C569.426086,252.246826 579.960571,254.790680 587.034058,248.627548 
	C589.128174,246.802948 587.613525,244.916962 587.356628,243.106491 
	C586.185181,234.851883 592.870667,228.524628 600.711304,230.568024 
	C606.147095,231.984665 607.863831,234.649124 608.035095,241.934525 
	C608.157410,247.137329 605.819092,251.026550 600.962646,251.903732 
	C597.296082,252.566025 596.093750,254.497147 595.202698,257.657867 
	C592.720459,266.462830 589.880188,275.166779 587.393921,283.970673 
	C586.328369,287.743744 584.358337,289.370911 580.296387,289.361664 
	C535.311157,289.259125 490.325714,289.266907 445.340424,289.334137 
	C441.579559,289.339752 439.646149,288.016296 438.641907,284.257782 
	C436.410370,275.906464 433.479279,267.738556 431.355530,259.363464 
	C430.300568,255.203140 428.522583,252.924622 424.253632,251.575806 
	C417.145660,249.329987 414.523651,241.236618 418.383972,235.350494 
	C421.571167,230.490707 426.871765,228.673767 431.801910,230.751083 
	C436.941162,232.916504 440.256348,238.432495 438.525116,243.719742 
	C436.867798,248.781281 439.457916,249.902496 443.249115,250.713074 
	C454.630249,253.146423 459.357483,249.890610 461.533356,237.851639 
	C462.449768,232.781097 462.968811,227.639099 463.686249,222.532074 
	C464.134796,219.339218 463.395447,216.941467 460.534668,214.816956 
	C455.968018,211.425598 454.357300,206.369339 456.297729,202.079529 
	C458.134674,198.018387 460.918335,194.778976 466.036285,194.714920 
	C472.033997,194.639847 474.784119,196.408859 477.531891,202.770874 
M513.915466,274.823181 
	C520.175842,266.244598 519.920410,260.604401 513.004822,254.714462 
	C506.011505,261.244354 506.148651,269.250488 513.915466,274.823181 
M476.083740,259.510956 
	C475.276855,258.316132 474.782410,256.769470 472.982391,256.695740 
	C466.686279,263.233429 466.935181,267.523193 473.087769,274.281708 
	C478.273987,269.483093 479.093689,266.012482 476.083740,259.510956 
M551.314575,257.062744 
	C546.909302,265.114136 547.243347,268.804108 552.942932,274.193481 
	C555.275452,272.885071 555.861084,270.272614 557.087524,268.220459 
	C559.438232,264.287140 556.584229,258.272675 551.314575,257.062744 
z"/>
<path fill="#000000" opacity="1.000000" stroke="none" 
	d="
M685.733398,549.733215 
	C693.493835,541.694092 700.403625,533.460449 706.975342,524.808472 
	C718.316223,509.877625 727.673828,493.540131 740.279297,479.494232 
	C756.494690,461.425934 776.549988,454.223541 800.199097,457.309814 
	C807.536682,458.267365 815.483337,458.390442 822.385986,463.558319 
	C817.941589,466.552002 812.832397,466.614777 808.274109,467.863434 
	C783.523193,474.643158 764.081238,488.781799 748.742371,509.078491 
	C739.117004,521.814880 729.999268,535.049744 719.294983,546.825745 
	C706.798035,560.573792 690.970154,569.684814 672.673645,574.272583 
	C663.409973,576.595398 653.940491,576.992859 644.581543,578.378052 
	C643.751709,578.500977 642.920044,578.574402 641.633484,576.576904 
	C657.730469,570.019226 673.026550,562.207336 685.733398,549.733215 
z"/>
<path fill="#000000" opacity="1.000000" stroke="none" 
	d="
M313.818481,553.215332 
	C300.166199,541.193298 290.792084,526.096619 279.993988,512.186890 
	C267.497894,496.089905 253.300842,482.150635 234.356155,473.693390 
	C225.806732,469.876801 216.778976,467.756592 207.810608,465.370819 
	C206.567703,465.040192 205.134247,465.194550 204.049469,463.333435 
	C207.543625,461.274719 211.218704,460.278503 215.048553,459.490967 
	C224.513168,457.544678 233.996536,455.708649 243.704681,456.946594 
	C259.575623,458.970367 273.050964,465.643646 284.022522,477.517120 
	C299.002472,493.728424 309.402405,513.271057 323.067352,530.437256 
	C338.310486,549.585938 355.617645,565.914734 379.286774,574.205566 
	C380.987976,574.801514 383.263275,575.001099 384.463379,578.181702 
	C357.991516,577.291138 333.982697,571.399780 313.818481,553.215332 
z"/>
<path fill="#000000" opacity="1.000000" stroke="none" 
	d="
M360.247192,406.851318 
	C362.279816,422.508667 359.790070,437.527252 358.483063,452.591553 
	C356.997009,469.719727 360.639496,486.014862 366.849701,501.794495 
	C373.191162,517.907654 381.275970,533.178833 390.213196,547.998596 
	C391.323914,549.840393 392.408569,551.673340 392.740814,553.886230 
	C390.486755,554.973694 389.503601,553.202637 388.399414,552.200867 
	C363.007690,529.164246 344.483521,501.849884 335.341675,468.426544 
	C329.000885,445.244171 327.793732,422.297577 335.725983,399.270996 
	C338.679260,390.697754 343.159027,382.952789 348.110443,375.443512 
	C349.008148,374.082062 350.033081,372.702240 352.749878,372.028320 
	C357.559784,382.942200 359.079865,394.621277 360.247192,406.851318 
z"/>
<path fill="#000000" opacity="1.000000" stroke="none" 
	d="
M651.156250,540.146362 
	C644.920288,544.589783 640.693298,550.996521 633.085449,553.691650 
	C635.659729,548.640259 637.919617,543.397278 640.862427,538.570618 
	C653.779602,517.384216 664.077820,495.192108 667.389038,470.322357 
	C668.649109,460.858276 667.307800,451.360077 666.360168,441.951172 
	C664.033813,418.853363 665.339661,396.133057 672.150330,373.849152 
	C672.333130,373.250916 672.845642,372.753479 673.325806,372.024811 
	C677.324219,373.274292 678.765747,376.931549 680.566467,379.849762 
	C691.599548,397.728973 696.264709,417.107391 695.471069,438.248352 
	C694.401062,466.748566 684.122070,491.737518 669.465942,515.591125 
	C664.121765,524.289001 656.842529,531.365906 651.156250,540.146362 
z"/>
<path fill="#000000" opacity="1.000000" stroke="none" 
	d="
M167.252686,682.702881 
	C169.670731,683.574158 172.089447,684.352417 172.847733,686.387817 
	C174.619949,691.144958 178.278442,690.831238 182.207794,690.826538 
	C265.512787,690.726685 348.817810,690.691467 432.122833,690.617798 
	C440.104004,690.610779 448.088959,690.553589 456.064789,690.293396 
	C461.430725,690.118408 462.814178,694.208679 465.560699,698.497681 
	C350.936188,698.497681 237.068695,698.497681 123.201180,698.497681 
	C123.112282,698.032898 123.023376,697.568054 122.934479,697.103271 
	C133.265778,694.836121 142.478851,689.901123 151.907562,685.522705 
	C156.755035,683.271729 161.624161,682.201843 167.252686,682.702881 
z"/>
<path fill="#000000" opacity="1.000000" stroke="none" 
	d="
M606.000000,699.185791 
	C590.715759,699.185608 575.931519,699.185608 561.018372,699.185608 
	C562.315308,693.196960 565.402588,690.747864 571.227295,690.744507 
	C588.220642,690.734924 605.213989,690.783447 622.207336,690.785828 
	C695.845642,690.796204 769.483948,690.782104 843.122192,690.844604 
	C847.405151,690.848206 850.954102,690.834778 853.478699,686.147339 
	C855.708313,682.007568 863.341125,681.157715 869.614258,683.681213 
	C875.475952,686.039185 881.099609,688.982483 886.919739,691.452026 
	C892.038147,693.623962 897.283569,695.496582 902.472839,697.501404 
	C902.416016,698.062927 902.359192,698.624451 902.302368,699.185974 
	C803.701599,699.185974 705.100769,699.185974 606.000000,699.185791 
z"/>
<path fill="#000000" opacity="1.000000" stroke="none" 
	d="
M630.898560,767.000000 
	C630.969727,775.659973 631.132324,783.820435 631.080322,791.979675 
	C631.047485,797.126038 631.669250,801.478394 638.379089,801.227539 
	C638.968994,801.205444 639.611145,801.670471 640.164124,802.013855 
	C640.386963,802.152161 640.435242,802.571838 640.970154,803.793335 
	C630.538513,803.793335 620.507202,803.793335 610.402649,803.793335 
	C610.487671,803.052429 610.450134,802.482971 610.571960,802.446472 
	C616.194397,800.764832 616.996826,796.471863 617.282104,791.347534 
	C617.625183,785.184143 617.524170,779.035156 617.643555,772.880310 
	C617.711426,769.383850 616.079651,767.515747 612.605042,767.492249 
	C603.113281,767.427917 593.620850,767.468323 584.128906,767.416016 
	C581.403625,767.401001 580.223083,768.612976 580.257996,771.350159 
	C580.349243,778.510193 580.245056,785.673218 580.385620,792.831848 
	C580.474182,797.341309 581.629272,801.161194 587.323242,801.195618 
	C588.258423,801.201233 589.290283,801.615906 589.666321,802.741577 
	C587.362244,804.998108 561.875793,805.100098 559.389832,802.864563 
	C559.420654,802.708130 559.422485,802.427734 559.486389,802.412842 
	C567.791199,800.471802 566.692444,793.896790 566.693298,787.848083 
	C566.695374,773.192566 566.700012,758.536926 566.733887,743.881470 
	C566.745422,738.898743 566.945190,733.883545 559.854492,733.646912 
	C559.043884,733.619934 558.455627,732.809753 558.561157,731.145447 
	C568.228394,731.145447 577.933472,731.145447 587.922485,731.145447 
	C587.552490,732.305908 587.493896,732.851746 587.355164,732.872986 
	C580.185486,733.969666 579.841187,739.029968 580.223328,744.737610 
	C580.478760,748.551636 580.370422,752.397156 580.277161,756.224976 
	C580.200745,759.363037 581.506287,760.787415 584.713257,760.760376 
	C594.038757,760.681885 603.366211,760.654297 612.691040,760.764587 
	C615.866028,760.802124 617.320557,759.402344 617.435669,756.384399 
	C617.645020,750.893433 617.702576,745.413818 617.223450,739.918213 
	C616.904907,736.263977 615.803528,733.840454 611.619080,733.942871 
	C610.458740,733.971252 609.283813,733.554138 609.075684,731.301514 
	C618.760010,731.301514 628.374329,731.301514 637.877502,731.301514 
	C638.297241,732.772095 637.771667,733.635681 636.942139,733.659607 
	C631.594421,733.814026 631.019348,737.279541 631.048340,741.520691 
	C631.105164,749.846436 630.960449,758.173462 630.898560,767.000000 
z"/>
<path fill="#000000" opacity="1.000000" stroke="none" 
	d="
M558.142212,852.163330 
	C550.120667,856.425354 544.026917,854.029480 537.652283,848.809937 
	C530.537781,842.984497 530.427307,843.808899 537.404907,837.845764 
	C543.579102,832.569275 549.047302,830.932373 557.378967,834.037476 
	C568.220093,838.077759 580.066162,839.011719 591.803711,838.997070 
	C613.300903,838.970337 634.806396,838.695618 656.293152,839.189758 
	C679.442871,839.722046 702.597229,838.078613 725.728821,839.606140 
	C729.276245,839.840332 731.867615,838.048645 734.220642,836.006287 
	C737.054871,833.546143 739.431641,833.843140 742.186707,835.983032 
	C744.416626,837.715027 746.851013,839.194153 749.253601,840.690979 
	C751.993469,842.397766 752.287537,844.023682 749.382812,845.866455 
	C746.851135,847.472351 744.310364,849.080994 741.908325,850.869446 
	C739.583618,852.600220 737.411865,852.824402 735.104919,850.962646 
	C731.134155,847.758240 726.593750,847.195740 721.568298,847.216003 
	C678.740723,847.388245 635.912170,847.289490 593.084167,847.391846 
	C581.388916,847.419800 569.888184,849.271179 558.142212,852.163330 
z"/>
<path fill="#000000" opacity="1.000000" stroke="none" 
	d="
M474.405579,832.413757 
	C477.839417,830.841858 480.408905,831.508850 482.973419,833.705994 
	C485.872131,836.189636 489.079010,838.313538 492.151184,840.594788 
	C494.578583,842.397339 494.920044,844.177063 492.208862,846.081238 
	C488.532440,848.663208 484.904114,851.313843 481.263000,853.945923 
	C479.671692,855.096191 478.036591,855.445129 476.109558,854.717773 
	C461.586914,849.235596 446.348969,847.552002 431.042633,847.437561 
	C387.754944,847.113770 344.463531,847.300415 301.173828,847.197876 
	C297.791840,847.189819 294.914368,848.208374 292.409302,850.211731 
	C289.273926,852.719055 286.374115,852.510254 283.398590,850.106262 
	C280.605286,847.849548 276.870667,846.772644 274.604523,843.076477 
	C277.960449,839.257751 282.358154,836.928589 286.578766,834.415588 
	C288.325043,833.375854 289.810760,834.696228 291.078644,835.711792 
	C294.928925,838.795837 299.136902,839.357239 304.084778,839.295105 
	C324.198669,839.042236 344.320892,839.567871 364.438751,839.487061 
	C391.070984,839.380127 417.721802,839.479431 444.323303,838.436218 
	C454.299286,838.044983 464.445221,836.078857 474.405579,832.413757 
z"/>
<path fill="#000000" opacity="1.000000" stroke="none" 
	d="
M656.770569,792.119629 
	C645.569702,774.095825 649.142517,752.289856 664.781677,741.606750 
	C678.312134,732.364075 701.677246,733.225220 713.554565,743.792664 
	C724.886108,753.874451 727.007141,766.858582 723.000427,780.739624 
	C718.907715,794.918640 708.510132,802.935852 694.253601,805.191223 
	C679.835876,807.472046 666.759766,804.388977 656.770569,792.119629 
M683.999329,798.647461 
	C696.099976,801.343384 704.594055,796.729431 708.580261,785.042297 
	C709.536804,782.238037 710.234558,779.198669 710.278076,776.255981 
	C710.439453,765.345337 708.823425,754.966431 699.995850,747.162354 
	C690.088074,738.403259 674.549255,740.128601 668.109619,750.638916 
	C660.549133,762.978638 662.677490,791.710266 683.999329,798.647461 
z"/>
<path fill="#000000" opacity="1.000000" stroke="none" 
	d="
M422.297119,782.367798 
	C422.311920,785.485352 422.380249,788.150879 422.337463,790.814575 
	C422.254700,795.967896 421.992584,801.181519 429.193604,801.810120 
	C429.475952,801.834778 429.698944,802.539062 430.494110,803.768738 
	C421.132050,803.768738 412.420715,803.768738 403.709381,803.768738 
	C403.425323,803.395142 403.141266,803.021606 402.857208,802.648010 
	C411.491638,800.411682 409.794434,793.815491 409.857269,788.105408 
	C409.987335,776.282166 409.961548,764.456482 409.902039,752.632263 
	C409.872375,746.737549 411.875458,739.641296 402.444824,739.306030 
	C402.405273,737.063416 403.633148,736.765686 404.773468,736.790649 
	C415.579926,737.027405 426.409912,736.035156 437.194611,737.421570 
	C453.575012,739.527405 457.455963,755.050720 448.313538,766.372803 
	C446.540833,768.568054 444.717072,770.722168 442.440247,773.470642 
	C451.342285,784.065369 457.388641,797.366150 471.799622,802.109436 
	C471.867218,804.065613 470.716614,804.595276 469.557404,804.607117 
	C460.357483,804.701233 451.089478,805.180420 445.041656,795.956543 
	C441.577911,790.673767 437.560791,785.755371 433.834198,780.642761 
	C431.586151,777.558655 428.351105,777.973328 425.198181,778.095520 
	C422.732758,778.190979 422.298370,779.906311 422.297119,782.367798 
M436.621185,746.880615 
	C433.883118,744.082947 430.554199,743.024414 426.664948,743.177551 
	C423.851501,743.288269 422.268860,744.298279 422.293884,747.306519 
	C422.349213,753.964722 422.351532,760.623413 422.364990,767.281860 
	C422.368927,769.228027 423.322815,770.243713 425.199554,770.801392 
	C434.140167,773.458069 440.506104,768.887878 440.819489,759.553772 
	C440.970062,755.069702 439.986694,750.971863 436.621185,746.880615 
z"/>
<path fill="#000000" opacity="1.000000" stroke="none" 
	d="
M460.006409,306.250732 
	C458.342468,306.249023 457.176331,306.275452 456.011963,306.241669 
	C443.706848,305.884857 446.081818,308.532867 442.497101,295.027466 
	C443.081879,293.713165 444.330994,293.656677 445.460815,293.701904 
	C454.441956,294.061859 463.402924,293.307800 472.393646,293.395233 
	C503.015228,293.692993 533.644287,294.143616 564.266968,293.198456 
	C569.421570,293.039368 574.585449,293.106171 579.743774,293.170929 
	C582.989685,293.211700 584.107117,294.683044 583.182922,298.026184 
	C580.907959,306.254883 581.009155,306.280823 572.375244,306.278534 
	C535.085205,306.268616 497.795135,306.260010 460.006409,306.250732 
z"/>
<path fill="#000000" opacity="1.000000" stroke="none" 
	d="
M227.345840,796.513794 
	C232.602905,792.140015 234.560303,786.590454 234.654938,780.367737 
	C234.824600,769.208435 234.668716,758.043701 234.890472,746.885925 
	C234.972733,742.747620 233.987564,740.044067 229.320084,739.905396 
	C228.810593,739.890259 228.320480,739.222839 227.778625,738.826660 
	C230.728134,736.109924 247.246231,735.846252 251.977127,738.737305 
	C242.943893,740.646057 245.442734,747.397827 245.256821,753.022400 
	C244.927124,762.997375 246.066696,773.026184 244.370102,782.947449 
	C242.690720,792.768005 238.138382,800.623474 228.126282,803.860535 
	C217.281311,807.366760 206.619095,806.982178 197.300919,799.710449 
	C190.604828,794.484863 188.951065,786.625305 188.735443,778.639587 
	C188.456802,768.319275 188.570282,757.982971 188.760284,747.658020 
	C188.840378,743.306274 188.286880,739.939331 182.888779,739.956726 
	C182.469696,739.958069 182.000198,739.533142 181.647476,739.205750 
	C181.434952,739.008545 181.403061,738.616760 180.834183,737.085327 
	C190.037186,736.510498 198.787796,736.575928 207.571045,737.112854 
	C207.520340,739.456787 206.584900,739.879639 205.585953,740.035583 
	C202.520050,740.514221 201.426666,742.479492 201.436935,745.322449 
	C201.479034,756.981262 201.513062,768.640198 201.602829,780.298706 
	C201.612991,781.616577 201.920517,782.938354 202.151840,784.247375 
	C204.494919,797.506104 214.867569,802.703430 227.345840,796.513794 
z"/>
<path fill="#000000" opacity="1.000000" stroke="none" 
	d="
M382.391907,795.252930 
	C373.834259,806.146790 362.571930,807.179443 350.554901,804.743164 
	C338.860016,802.372253 333.393707,794.179077 331.674377,782.952393 
	C330.176361,773.170837 331.418335,763.315002 330.883789,753.512878 
	C330.564819,747.664490 334.117188,739.847961 323.195984,739.047546 
	C327.096100,736.024231 346.129120,735.948242 350.584991,738.826721 
	C341.643036,740.513000 344.174683,747.189636 344.094421,752.544434 
	C343.949646,762.204468 343.938843,771.880066 344.324707,781.531067 
	C344.797241,793.349976 351.963959,799.891174 362.782776,798.947571 
	C369.784363,798.336853 375.325958,793.380798 376.523102,785.883728 
	C378.662933,772.482849 377.428802,758.957764 377.550568,745.481140 
	C377.596405,740.407898 373.155457,740.584290 370.228516,738.306824 
	C377.882935,735.931030 385.533447,736.916504 393.199707,736.956787 
	C393.199707,738.231873 393.287262,738.802856 393.187195,738.837952 
	C387.498596,740.829468 387.190887,745.328369 387.322052,750.416687 
	C387.553741,759.408020 387.228729,768.412720 387.399658,777.406860 
	C387.520874,783.785889 386.034485,789.602844 382.391907,795.252930 
z"/>
<path fill="#000000" opacity="1.000000" stroke="none" 
	d="
M296.473907,765.195312 
	C294.979279,767.247192 296.185883,768.606812 297.030457,770.013000 
	C301.829712,778.004028 306.579193,786.025696 311.465149,793.963379 
	C313.599121,797.430298 316.296692,800.338379 320.614929,801.143982 
	C321.560608,801.320435 322.601379,801.648376 322.634460,803.360962 
	C319.856140,805.552673 316.471649,804.138489 313.341400,804.481018 
	C305.816772,805.304443 300.189972,804.247437 297.323486,795.530090 
	C295.255463,789.240967 290.638123,783.790222 286.589569,777.014526 
	C282.057281,784.515564 277.949951,791.231750 273.932190,798.001160 
	C272.212097,800.899353 275.891296,801.254211 276.768097,802.904541 
	C273.561737,804.998230 256.821869,804.910095 254.137161,802.949402 
	C254.073792,801.972839 254.648788,801.179871 255.471039,801.141174 
	C261.641937,800.850647 264.739258,796.464722 267.732574,792.009521 
	C271.910156,785.791565 275.909271,779.453247 280.115540,773.255249 
	C281.631989,771.020691 281.646454,769.169006 280.171936,766.882019 
	C275.842499,760.167236 271.589325,753.397278 267.527435,746.518311 
	C265.118561,742.438843 261.381165,740.361694 256.941498,738.462036 
	C264.907043,735.855896 272.715332,737.019409 280.575043,736.939758 
	C279.174103,746.815063 286.464478,752.152283 290.177155,760.515259 
	C295.059113,754.385071 298.401672,748.756836 301.281860,742.847961 
	C302.283142,740.793762 299.247864,739.946106 299.454742,737.304443 
	C306.331696,736.415344 313.226624,736.422180 320.284943,737.953613 
	C307.781433,743.224609 304.190338,755.805725 296.473907,765.195312 
z"/>
<path fill="#000000" opacity="1.000000" stroke="none" 
	d="
M839.873291,770.648315 
	C838.970398,773.274170 840.221497,776.096680 837.480164,778.372864 
	C835.200256,769.858398 828.528931,771.531311 822.602722,771.348755 
	C819.720215,771.259888 818.232239,772.367859 818.268555,775.396545 
	C818.332520,780.727783 818.224182,786.061279 818.312256,791.391846 
	C818.368530,794.795837 820.016296,797.144470 823.527222,797.679199 
	C827.500854,798.284424 831.508545,798.192627 835.485107,797.636902 
	C839.258484,797.109619 840.268311,793.498352 842.667358,789.773621 
	C845.213989,794.878845 843.864807,798.826660 842.854492,802.561035 
	C842.010437,805.680908 838.979370,805.128296 836.527771,805.239136 
	C825.046936,805.758423 813.614197,803.087952 802.105347,804.724487 
	C800.871216,804.899902 799.388428,804.753906 798.752625,803.196777 
	C798.806091,802.861511 798.790710,802.291748 798.917725,802.258118 
	C804.367371,800.810791 804.812256,796.780334 805.088745,791.934814 
	C805.820740,779.106628 805.492554,766.283508 805.581055,753.459595 
	C805.624634,747.147888 807.332458,739.740845 796.960510,739.331116 
	C798.107605,736.490845 800.062439,736.749878 801.755981,736.738342 
	C814.084778,736.654663 826.413940,736.627808 838.742981,736.571411 
	C840.105347,736.565186 841.895996,736.486450 841.902344,738.163147 
	C841.917542,742.174438 841.763977,746.240601 839.735291,751.852661 
	C836.616089,741.799561 829.527893,743.747559 823.319519,743.343933 
	C819.747437,743.111816 818.046082,744.395813 818.216003,748.164001 
	C818.395935,752.155090 818.388611,756.166748 818.209167,760.158020 
	C818.056763,763.548950 819.285400,765.043518 822.808167,764.896057 
	C828.393982,764.662415 834.035156,765.494324 839.297119,763.343140 
	C840.802551,765.955505 839.997803,768.111328 839.873291,770.648315 
z"/>
<path fill="#000000" opacity="1.000000" stroke="none" 
	d="
M468.161682,745.820190 
	C465.870972,741.778687 461.395050,740.984619 458.435608,737.928223 
	C466.016876,735.887085 473.450714,737.058472 480.415314,736.845276 
	C481.396118,748.820374 489.450226,756.315125 494.399292,765.426208 
	C494.993561,765.483704 495.587860,765.541260 496.182129,765.598816 
	C499.411499,759.901794 502.618774,754.192139 505.878326,748.512573 
	C507.876373,745.031067 510.159027,741.623291 506.530518,737.036804 
	C513.942871,737.036804 520.515808,737.036804 526.861206,737.036804 
	C527.401184,738.658752 527.120544,739.650513 526.271912,739.786499 
	C520.645325,740.687317 518.021851,744.987854 515.302673,749.211975 
	C513.318970,752.293579 511.582306,755.569397 509.320038,758.430115 
	C501.083221,768.845886 498.722595,780.633057 500.002991,793.618225 
	C500.438110,798.030579 501.171539,801.130493 506.308746,801.214355 
	C507.279358,801.230164 508.280060,801.620728 508.625977,802.771362 
	C506.098816,805.323853 482.843689,805.207581 480.204773,802.166077 
	C488.462189,800.721069 486.456604,794.432373 486.910522,788.993835 
	C487.694733,779.598083 485.304993,771.335022 479.807343,763.696777 
	C475.726746,758.027344 472.173248,751.978577 468.161682,745.820190 
z"/>
<path fill="#000000" opacity="1.000000" stroke="none" 
	d="
M749.047485,800.925537 
	C752.300964,800.147339 752.766418,797.951538 752.774597,795.461975 
	C752.827026,779.489685 752.861389,763.517212 752.955933,747.545166 
	C752.973022,744.664185 751.907959,743.164368 748.841003,743.378052 
	C745.029358,743.643677 741.204529,744.024658 737.395142,743.936340 
	C733.296326,743.841248 732.492432,747.943604 729.130005,750.053528 
	C727.224182,745.168213 729.268066,740.992676 730.351501,737.059998 
	C731.170593,734.087036 734.066650,736.313293 736.023132,736.389526 
	C752.320312,737.025024 768.627319,737.116089 784.906494,736.290649 
	C788.981018,736.084045 790.319336,737.270142 789.687561,740.817078 
	C789.151978,743.824524 790.209717,747.085022 788.611206,749.868774 
	C787.957153,749.868774 787.410522,749.979248 787.348877,749.853027 
	C783.246094,741.448303 775.391846,743.982239 768.635742,743.507568 
	C766.444031,743.353516 766.030029,745.229492 766.036255,747.009094 
	C766.093689,763.313782 766.165344,779.618530 766.253296,795.923035 
	C766.269104,798.852295 767.685730,800.556519 770.698608,800.920654 
	C772.131165,801.093750 773.762207,800.994324 774.768066,802.742371 
	C774.129578,805.308289 771.835571,805.084656 770.056458,804.894653 
	C763.409973,804.184998 756.792786,804.093323 750.146118,804.829468 
	C748.708130,804.988708 746.887817,804.989014 746.442627,803.144897 
	C746.072083,801.610046 747.623108,801.420288 749.047485,800.925537 
z"/>
<path fill="#000000" opacity="1.000000" stroke="none" 
	d="
M129.619034,800.708984 
	C132.196503,799.703735 132.621170,797.825195 132.783463,795.731445 
	C134.201111,777.441528 133.558731,759.122314 133.557816,740.813354 
	C133.557617,736.976196 132.397125,733.886169 127.695824,733.784973 
	C126.724915,733.764099 125.735718,733.342834 125.261276,732.296631 
	C127.174019,730.088745 150.449799,729.783081 154.253357,731.917847 
	C154.285385,732.932190 153.626450,733.607117 152.792786,733.617126 
	C146.547791,733.692200 146.259201,737.818665 146.358536,742.549011 
	C146.673004,757.525208 145.815582,772.517334 146.951202,787.484009 
	C147.593613,795.950562 149.540268,797.781250 158.148560,797.925232 
	C160.310989,797.961304 162.476852,797.880005 164.639374,797.803040 
	C168.589539,797.662720 171.825668,796.498291 173.002838,792.156433 
	C173.337143,790.923340 173.829269,789.328796 175.622833,789.811340 
	C177.241196,790.246765 177.211670,791.814026 177.109802,793.140686 
	C176.982788,794.794861 176.683670,796.437134 176.428284,798.079773 
	C175.441315,804.428101 174.594940,805.122437 168.007462,805.280029 
	C155.190338,805.586792 142.435394,803.403992 129.600281,804.333008 
	C128.486465,804.413696 127.243240,804.435791 126.361671,803.230957 
	C126.056992,801.018311 127.946548,801.249023 129.619034,800.708984 
z"/>
<path fill="#000000" opacity="1.000000" stroke="none" 
	d="
M878.462708,804.683350 
	C870.440063,804.464294 862.880920,804.316345 855.321777,804.168396 
	C854.940796,803.586731 854.559814,803.005005 854.178894,802.423340 
	C863.062683,801.329041 861.820129,795.217102 861.847534,789.842590 
	C861.917969,776.025818 861.801086,762.207581 861.937683,748.391724 
	C861.983032,743.803772 861.593994,739.956665 855.707947,739.809570 
	C855.204407,739.796936 854.718079,739.096130 854.177307,738.679199 
	C857.319031,736.091553 877.783997,735.877319 881.826538,738.278564 
	C881.567017,738.677307 881.330811,739.401306 881.049744,739.419189 
	C874.001648,739.866760 874.250244,744.901794 874.368774,749.897522 
	C874.684509,763.203369 873.664246,776.534546 874.961731,789.817505 
	C875.571472,796.059814 877.177673,797.423096 883.539795,797.799805 
	C885.861694,797.937256 888.198242,797.808289 890.527100,797.852478 
	C894.771423,797.932983 898.006226,796.535828 899.366455,792.130005 
	C899.650757,791.209106 900.088928,790.217529 902.069153,790.156311 
	C904.436340,794.124084 902.120361,798.155273 901.387207,802.065918 
	C900.792542,805.238281 897.922180,805.280273 895.386780,805.234619 
	C889.898804,805.135803 884.412964,804.921570 878.462708,804.683350 
z"/>
<path fill="#000000" opacity="1.000000" stroke="none" 
	d="
M526.939331,845.495911 
	C525.155151,852.081055 521.246155,856.032776 514.903198,857.239746 
	C509.653534,858.238647 505.375519,856.187805 502.113953,852.172119 
	C498.247467,847.411438 498.126221,840.334900 501.573456,835.371277 
	C505.315125,829.983704 511.220398,827.956238 517.349304,829.954773 
	C523.887024,832.086609 526.984314,836.937805 526.939331,845.495911 
z"/>
<path fill="#000000" opacity="1.000000" stroke="none" 
	d="
M407.109253,410.125793 
	C423.582397,396.627869 435.189941,380.477936 439.127716,359.470978 
	C439.995667,354.840698 440.229797,350.150177 439.831848,345.540253 
	C439.412170,340.679138 441.414429,339.685547 445.797028,339.562897 
	C477.440674,338.677399 509.075531,340.070099 540.715149,339.744720 
	C554.027649,339.607819 567.344116,339.842255 580.655945,339.678040 
	C584.790649,339.627075 586.269226,341.183014 586.205139,345.246002 
	C585.744934,374.439911 599.350403,396.119843 622.630249,412.424103 
	C625.953613,414.751617 627.471802,417.165771 627.401306,421.368958 
	C626.851440,454.147491 623.592651,486.399597 611.648926,517.347961 
	C601.297119,544.171387 584.957153,566.589294 563.769958,585.799194 
	C549.522644,598.716858 533.958252,609.768311 517.742676,620.000732 
	C514.960999,621.755981 512.557190,622.349060 509.465698,620.574097 
	C495.723541,612.684448 482.935089,603.468750 470.763123,593.359802 
	C460.107574,584.510254 450.128632,574.900940 441.425415,564.176270 
	C433.270294,554.127014 426.349182,543.225586 420.578949,531.470581 
	C413.547180,517.145569 408.666443,502.291687 405.227539,486.794128 
	C401.863800,471.635406 400.147400,456.315857 399.452911,440.843872 
	C399.221863,435.696381 399.249664,430.510895 398.595703,425.415070 
	C397.672882,418.224091 399.995605,413.138245 407.109253,410.125793 
M565.222717,496.792145 
	C564.668640,509.231323 566.661377,521.793762 563.371948,534.105286 
	C562.887573,535.918213 563.297485,537.690002 565.569397,537.693970 
	C570.330872,537.702209 575.132629,538.430420 579.537720,537.638367 
	C576.611694,508.741821 577.773560,480.270813 578.693176,451.533142 
	C575.015259,450.622528 571.028442,451.190948 567.080627,451.323761 
	C564.715637,451.403381 564.034607,453.041290 564.424561,455.190247 
	C566.045532,464.123871 564.906921,473.141052 565.278687,482.110931 
	C565.425415,485.650452 564.142334,487.306793 560.406616,487.280701 
	C547.908997,487.193298 535.409851,487.244080 522.911865,487.329010 
	C519.649414,487.351166 517.867432,486.146210 517.914856,482.693176 
	C518.038330,473.709869 517.146362,464.702087 518.529236,455.751343 
	C518.837158,453.758392 518.856812,451.748260 516.408386,451.523773 
	C512.470093,451.162659 508.058167,449.961090 504.682617,452.025146 
	C502.041138,453.640350 505.702942,456.790283 505.174255,459.374664 
	C505.141998,459.532288 505.193542,459.706024 505.199127,459.872528 
	C506.038940,484.835022 506.769836,509.795990 503.488403,534.662292 
	C503.266510,536.343811 503.447083,537.962830 505.266479,538.207886 
	C510.137695,538.863953 515.055969,539.318115 520.040833,537.736145 
	C516.161926,524.201111 518.456299,510.829712 517.916321,497.590759 
	C517.776306,494.157959 519.486206,492.779449 522.762390,492.795868 
	C535.427246,492.859375 548.092346,492.869141 560.757202,492.930328 
	C562.818909,492.940277 564.873779,493.118011 565.222717,496.792145 
M449.974915,449.497253 
	C449.598480,463.046173 450.466797,476.676514 446.812683,490.975769 
	C462.256195,489.325775 476.957489,493.585632 491.951263,492.023102 
	C498.485504,491.342133 500.811829,487.839935 498.376465,480.923737 
	C490.953369,488.433350 481.809387,487.538391 472.738586,486.045593 
	C466.450104,485.010712 463.488831,481.579987 462.760193,475.251404 
	C462.266541,470.963776 461.963837,466.620178 462.026855,462.308197 
	C462.319672,442.265411 460.950012,422.197296 462.952637,401.532013 
	C457.822998,401.473083 452.744568,400.608582 447.886627,401.903442 
	C451.559937,417.944885 449.338287,433.289520 449.974915,449.497253 
z"/>
</svg>